# xmcd CD database file
#
# Track frame offsets:
#	150
#	18391
#	59216
#	77457
#
# Disc length: 1574 seconds
#
# Revision: 0
# Processed by: cddbd v1.5.1PL2 Copyright (c) Steve Scherf et al.
# Submitted via: CDex 1.50beta8
#
DISCID=2b062404
DTITLE=藤あや子 - 港子守唄
DYEAR=2005
DGENRE=Enka
TTITLE0=港子守唄
TTITLE1=歌謡浪曲「港子守唄」〜蝶々夫人に寄せて
TTITLE2=港子守唄（オリジナル・カラオケ）
TTITLE3=歌謡浪曲「港子守唄」〜蝶々夫人に寄せて（オリジナル・カラオケ）
EXTD=YEAR: 2005
EXTT0=
EXTT1=
EXTT2=
EXTT3=
PLAYORDER=
